<?xml version="1.0" standalone="no"?>
<!DOCTYPE svg PUBLIC "-//W3C//DTD SVG 20010904//EN"
 "http://www.w3.org/TR/2001/REC-SVG-20010904/DTD/svg10.dtd">
<svg version="1.0" xmlns="http://www.w3.org/2000/svg"
 width="431.000000pt" height="574.000000pt" viewBox="0 0 431.000000 574.000000"
 preserveAspectRatio="xMidYMid meet">

<g transform="translate(0.000000,574.000000) scale(0.100000,-0.100000)"
fill="#000000" stroke="none">
<path d="M2138 4345 c-431 -59 -846 -326 -1095 -704 -94 -143 -195 -363 -227
-496 -7 -29 -7 -29 41 16 149 139 344 218 550 222 l102 2 27 70 c60 156 191
347 312 455 230 206 520 322 837 337 66 3 156 0 200 -5 44 -6 81 -9 83 -7 5 5
-101 43 -198 71 -175 52 -426 67 -632 39z"/>
<path d="M2460 3969 c-220 -36 -380 -260 -342 -480 25 -143 108 -254 236 -315
270 -128 578 49 603 347 16 187 -104 370 -282 432 -56 20 -150 26 -215 16z"/>
<path d="M3014 3795 c5 -11 18 -42 29 -70 17 -40 21 -72 22 -165 0 -103 -3
-123 -29 -193 l-29 -78 24 -17 c13 -8 59 -49 101 -90 374 -361 434 -958 144
-1418 l-38 -59 62 60 c151 147 275 388 327 635 22 105 24 369 4 480 -32 177
-111 373 -218 535 -89 136 -253 301 -378 381 -29 19 -29 19 -21 -1z"/>
<path d="M1280 3255 c-362 -78 -588 -371 -567 -740 7 -118 25 -194 72 -293
171 -362 597 -506 970 -328 171 81 292 215 351 388 128 375 -51 793 -399 935
-129 52 -291 67 -427 38z"/>
<path d="M2782 2660 c-77 -39 -135 -114 -152 -197 -26 -122 38 -250 154 -311
42 -21 65 -26 126 -26 61 0 84 5 126 26 167 87 211 289 96 435 -53 66 -116 97
-212 101 -68 3 -81 0 -138 -28z"/>
<path d="M2640 2046 c-61 -117 -165 -240 -270 -321 -294 -226 -672 -279 -1040
-146 -52 19 -77 24 -65 15 46 -37 247 -126 340 -151 93 -25 114 -27 295 -27
178 0 203 3 290 26 296 81 556 264 715 504 55 83 56 81 -24 86 -55 3 -84 11
-139 39 l-70 36 -32 -61z"/>
</g>
</svg>
